<svg width="44" height="33" viewBox="0 0 44 33" fill="none" xmlns="http://www.w3.org/2000/svg">
<path d="M11.7899 6.87556C11.6455 6.76317 11.4736 6.67358 11.2838 6.61192C11.0941 6.55026 10.8903 6.51773 10.6841 6.5162C10.4779 6.51467 10.2733 6.54416 10.0821 6.60299C9.8908 6.66182 9.71659 6.74883 9.56941 6.85906C7.90451 8.12227 6.58384 9.62456 5.68359 11.2793C4.78334 12.934 4.32134 14.7083 4.32423 16.5C4.32153 18.3604 4.8199 20.2014 5.78839 21.9087C6.75689 23.616 8.17485 25.1531 9.95426 26.4248C10.2537 26.636 10.6493 26.7499 11.0571 26.7422C11.4648 26.7345 11.8525 26.6058 12.1379 26.3835C12.8212 25.8621 12.7368 25.0322 12.0796 24.552C10.6515 23.5134 9.51512 22.264 8.73943 20.8798C7.96374 19.4956 7.56496 18.0055 7.56734 16.5C7.56734 13.4541 9.16943 10.692 11.7682 8.68231C12.3952 8.19556 12.4601 7.38706 11.7899 6.87556ZM15.5973 9.78451C15.3125 9.56092 14.9232 9.43258 14.5147 9.42763C14.1062 9.42269 13.7118 9.54153 13.4179 9.75811C12.2481 10.6391 11.3196 11.6889 10.6864 12.8463C10.0531 14.0038 9.72783 15.2457 9.7294 16.5C9.7294 19.2918 11.3077 21.8015 13.8222 23.5373C14.1192 23.7371 14.5056 23.8421 14.9013 23.8304C15.297 23.8188 15.6716 23.6913 15.9475 23.4746C16.6567 22.9334 16.5248 22.082 15.8589 21.6035C14.9461 20.9486 14.219 20.1579 13.7225 19.2801C13.226 18.4023 12.9708 17.4561 12.9725 16.5C12.9725 14.6025 13.9606 12.8799 15.567 11.616C16.1853 11.1309 16.287 10.3092 15.5973 9.78451ZM27.6443 9.78286C27.9291 9.55927 28.3183 9.43093 28.7268 9.42598C29.1354 9.42104 29.5298 9.53988 29.8237 9.75646C30.9937 10.6377 31.9224 11.6877 32.5556 12.8454C33.1889 14.0032 33.514 15.2455 33.5122 16.5C33.5122 19.2918 31.9339 21.8015 29.4194 23.5373C29.1224 23.7371 28.736 23.8421 28.3403 23.8304C27.9446 23.8188 27.57 23.6913 27.2941 23.4746C26.5849 22.9334 26.7168 22.082 27.3827 21.6035C28.2955 20.9486 29.0226 20.1579 29.5191 19.2801C30.0155 18.4023 30.2708 17.4561 30.2691 16.5C30.2691 14.6025 29.281 12.8799 27.6746 11.616C27.0562 11.1309 26.9546 10.3076 27.6443 9.78286ZM31.4517 6.87556C31.5961 6.76317 31.768 6.67358 31.9577 6.61192C32.1475 6.55026 32.3512 6.51773 32.5575 6.5162C32.7637 6.51467 32.9682 6.54416 33.1595 6.60299C33.3508 6.66182 33.525 6.74883 33.6722 6.85906C35.3371 8.12227 36.6577 9.62456 37.558 11.2793C38.4582 12.934 38.9202 14.7083 38.9173 16.5C38.92 18.3604 38.4217 20.2014 37.4532 21.9087C36.4847 23.616 35.0667 25.1531 33.2873 26.4248C32.9878 26.636 32.5922 26.7499 32.1845 26.7422C31.7768 26.7345 31.389 26.6058 31.1036 26.3835C30.4204 25.8621 30.5047 25.0322 31.1642 24.552C32.5918 23.5133 33.7278 22.2638 34.5031 20.8796C35.2784 19.4954 35.6769 18.0054 35.6742 16.5C35.6742 13.4541 34.0721 10.692 31.4733 8.68231C30.8463 8.19556 30.7815 7.38706 31.4517 6.87556ZM21.6208 14.025C20.7607 14.025 19.9358 14.2858 19.3276 14.7499C18.7194 15.2141 18.3777 15.8436 18.3777 16.5C18.3777 17.1564 18.7194 17.7859 19.3276 18.2501C19.9358 18.7143 20.7607 18.975 21.6208 18.975C22.4809 18.975 23.3058 18.7143 23.914 18.2501C24.5222 17.7859 24.8639 17.1564 24.8639 16.5C24.8639 15.8436 24.5222 15.2141 23.914 14.7499C23.3058 14.2858 22.4809 14.025 21.6208 14.025Z" fill="#E01111"/>
</svg>
