<svg width="1128" height="761" viewBox="0 0 1128 761" fill="none" xmlns="http://www.w3.org/2000/svg">
<g filter="url(#filter0_b_58_263)">
<path d="M0 43C0 19.2518 19.2518 0 43 0H1085C1108.75 0 1128 19.2518 1128 43V718C1128 741.748 1108.75 761 1085 761H43C19.2518 761 0 741.748 0 718V43Z" fill="white" fill-opacity="0.08"/>
<path d="M1 43C1 19.804 19.804 1 43 1H1085C1108.2 1 1127 19.804 1127 43V718C1127 741.196 1108.2 760 1085 760H43C19.804 760 1 741.196 1 718V43Z" stroke="url(#paint0_linear_58_263)" stroke-opacity="0.6" stroke-width="2"/>
</g>
<defs>
<filter id="filter0_b_58_263" x="-118.7" y="-118.7" width="1365.4" height="998.4" filterUnits="userSpaceOnUse" color-interpolation-filters="sRGB">
<feFlood flood-opacity="0" result="BackgroundImageFix"/>
<feGaussianBlur in="BackgroundImageFix" stdDeviation="59.35"/>
<feComposite in2="SourceAlpha" operator="in" result="effect1_backgroundBlur_58_263"/>
<feBlend mode="normal" in="SourceGraphic" in2="effect1_backgroundBlur_58_263" result="shape"/>
</filter>
<linearGradient id="paint0_linear_58_263" x1="564" y1="0" x2="564" y2="761" gradientUnits="userSpaceOnUse">
<stop stop-color="#A87DD6"/>
<stop offset="1" stop-color="#525252"/>
</linearGradient>
</defs>
</svg>
