<svg width="11" height="6" viewBox="0 0 11 6" fill="none" xmlns="http://www.w3.org/2000/svg">
<path d="M4.46952 5.73505L0.213232 1.54146C0.154524 1.48362 0.110689 1.42114 0.0817271 1.35405C0.0527648 1.28695 0.0378921 1.21445 0.0371094 1.13656C0.0371094 0.982312 0.0911202 0.847345 0.199142 0.73166C0.307163 0.615974 0.448844 0.558132 0.624183 0.558132H9.5477C9.72382 0.558132 9.8659 0.615974 9.97392 0.73166C10.0819 0.847345 10.1356 0.982312 10.1348 1.13656C10.1348 1.17512 10.0761 1.31009 9.95865 1.54146L5.70237 5.73505C5.60452 5.83145 5.50668 5.89894 5.40883 5.9375C5.31099 5.97606 5.20336 5.99534 5.08594 5.99534C4.96853 5.99534 4.8609 5.97606 4.76305 5.9375C4.66521 5.89894 4.56736 5.83145 4.46952 5.73505Z" fill="#A87DD6"/>
</svg>
